<svg aria-hidden="true" style="position: absolute; width: 0; height: 0; overflow: hidden;" version="1.1" xmlns="http://www.w3.org/2000/svg" xmlns:xlink="http://www.w3.org/1999/xlink">
<defs>
<symbol id="comment" viewBox="0 0 32 32">
<path stroke-linejoin="round" stroke-linecap="round" stroke-miterlimit="4" stroke-width="2.6667" d="M16 28c2.373 0 4.693-0.704 6.667-2.022s3.511-3.193 4.42-5.385c0.908-2.193 1.146-4.605 0.683-6.933s-1.606-4.466-3.284-6.144c-1.678-1.678-3.817-2.821-6.144-3.284s-4.741-0.225-6.933 0.683c-2.193 0.908-4.067 2.446-5.385 4.42s-2.022 4.294-2.022 6.667c0 1.984 0.48 3.855 1.333 5.503l-1.333 6.497 6.497-1.333c1.648 0.853 3.52 1.333 5.503 1.333z"></path>
</symbol>
<symbol id="download" viewBox="0 0 32 32">
<path d="M5.5 28c-0.928 0-1.819-0.369-2.475-1.025s-1.025-1.547-1.025-2.475v-5c0-0.398 0.158-0.779 0.439-1.061s0.663-0.439 1.061-0.439c0.398 0 0.779 0.158 1.061 0.439s0.439 0.663 0.439 1.061v5c0 0.276 0.224 0.5 0.5 0.5h21c0.133 0 0.26-0.053 0.354-0.146s0.146-0.221 0.146-0.354v-5c0-0.398 0.158-0.779 0.439-1.061s0.663-0.439 1.061-0.439c0.398 0 0.779 0.158 1.061 0.439s0.439 0.663 0.439 1.061v5c0 0.928-0.369 1.819-1.025 2.475s-1.547 1.025-2.475 1.025h-21z"></path>
<path d="M14.5 15.378v-11.378c0-0.398 0.158-0.779 0.439-1.061s0.663-0.439 1.061-0.439c0.398 0 0.779 0.158 1.061 0.439s0.439 0.663 0.439 1.061v11.378l3.94-3.938c0.139-0.139 0.304-0.25 0.486-0.325s0.377-0.114 0.574-0.114c0.197 0 0.392 0.039 0.574 0.114s0.347 0.186 0.486 0.325c0.139 0.139 0.25 0.304 0.325 0.486s0.114 0.377 0.114 0.574c0 0.197-0.039 0.392-0.114 0.574s-0.186 0.347-0.325 0.486l-6.5 6.5c-0.139 0.139-0.304 0.25-0.486 0.325s-0.377 0.114-0.574 0.114c-0.197 0-0.392-0.039-0.574-0.114s-0.347-0.186-0.486-0.325l-6.5-6.5c-0.139-0.139-0.25-0.304-0.325-0.486s-0.114-0.377-0.114-0.574c0-0.197 0.039-0.392 0.114-0.574s0.186-0.347 0.325-0.486c0.139-0.139 0.304-0.25 0.486-0.325s0.377-0.114 0.574-0.114c0.197 0 0.392 0.039 0.574 0.114s0.347 0.186 0.486 0.325l3.94 3.938z"></path>
</symbol>
<symbol id="eye" viewBox="0 0 32 32">
<path d="M30.914 15.595c-0.044-0.099-1.103-2.448-3.456-4.801-3.136-3.136-7.097-4.794-11.457-4.794s-8.321 1.657-11.457 4.794c-2.354 2.354-3.417 4.706-3.456 4.801-0.057 0.128-0.086 0.266-0.086 0.406s0.029 0.278 0.086 0.406c0.044 0.099 1.103 2.446 3.456 4.8 3.136 3.135 7.098 4.793 11.457 4.793s8.321-1.657 11.457-4.793c2.354-2.354 3.413-4.701 3.456-4.8 0.057-0.128 0.086-0.266 0.086-0.406s-0.029-0.278-0.086-0.406zM16 24c-3.848 0-7.209-1.399-9.991-4.156-1.142-1.135-2.113-2.43-2.884-3.844 0.771-1.414 1.742-2.709 2.884-3.844 2.783-2.758 6.144-4.156 9.991-4.156s7.209 1.399 9.991 4.156c1.144 1.135 2.117 2.43 2.89 3.844-0.901 1.683-4.827 8-12.881 8zM16 10c-1.187 0-2.347 0.352-3.333 1.011s-1.756 1.596-2.21 2.693c-0.454 1.096-0.573 2.303-0.341 3.467s0.803 2.233 1.642 3.072c0.839 0.839 1.908 1.411 3.072 1.642s2.37 0.113 3.467-0.341c1.096-0.454 2.033-1.223 2.693-2.21s1.011-2.147 1.011-3.333c-0.002-1.591-0.634-3.116-1.759-4.241s-2.65-1.758-4.241-1.759zM16 20c-0.791 0-1.565-0.235-2.222-0.674s-1.171-1.064-1.473-1.795c-0.303-0.731-0.382-1.535-0.228-2.311s0.535-1.489 1.095-2.048c0.559-0.559 1.272-0.94 2.048-1.095s1.58-0.075 2.311 0.228c0.731 0.303 1.356 0.815 1.795 1.473s0.674 1.431 0.674 2.222c0 1.061-0.421 2.078-1.172 2.828s-1.768 1.172-2.828 1.172z"></path>
</symbol>
<symbol id="heart" viewBox="0 0 32 32">
<path d="M16.133 24.733l-0.133 0.133-0.147-0.133c-6.333-5.747-10.52-9.547-10.52-13.4 0-2.667 2-4.667 4.667-4.667 2.053 0 4.053 1.333 4.76 3.147h2.48c0.707-1.813 2.707-3.147 4.76-3.147 2.667 0 4.667 2 4.667 4.667 0 3.853-4.187 7.653-10.533 13.4zM22 4c-2.32 0-4.547 1.080-6 2.773-1.453-1.693-3.68-2.773-6-2.773-4.107 0-7.333 3.213-7.333 7.333 0 5.027 4.533 9.147 11.4 15.373l1.933 1.76 1.933-1.76c6.867-6.227 11.4-10.347 11.4-15.373 0-4.12-3.227-7.333-7.333-7.333z"></path>
</symbol>
</defs>
</svg>
